<svg data-name="Layer 1" viewBox="0 0 64 64" xmlns="http://www.w3.org/2000/svg"><path d="M50 38.36a18.5 18.5 0 0 1-37 0C13 22.17 28 7.14 31.5 7.14S50 22.17 50 38.36Z" fill="#979797" class="fill-0baeff"></path><path d="M29.3 34.07c0 3.32-2.1 5.05-4.4 5.05s-4.32-1.81-4.32-4.79 1.73-5 4.44-5 4.28 2.03 4.28 4.74Zm-6 .17c0 1.66.56 2.86 1.64 2.86s1.56-1.07 1.56-2.86c0-1.61-.44-2.86-1.59-2.86s-1.57 1.28-1.57 2.86ZM43 40.67c0 3.32-2.1 5.05-4.4 5.05s-4.3-1.81-4.32-4.79 1.73-5 4.44-5S43 38 43 40.67Zm-5.93.17c0 1.66.54 2.86 1.61 2.86s1.56-1.07 1.56-2.86c0-1.61-.42-2.86-1.56-2.86s-1.57 1.27-1.57 2.86Z" fill="#979797" class="fill-e0e0e0"></path></svg>